<svg xmlns="http://www.w3.org/2000/svg" xmlns:xlink="http://www.w3.org/1999/xlink" width="8" height="47">
    <g id="icons" fill="#676767">
        <path d="M1,26 1,29 2.019,29 1.994,27 6,26.995 6,29 7,29 7,26 1,26ZM3,28 3,32 4.974,32 4.987,28 3,28ZM7,34 7,31 5.981,31 6,33 2,33 2,31 1,31 1,34 7,34ZM3,39L3,41 0,41 0,47 6,47 6,44 8,44 8,39 3,39ZM1,46 1,42 5,42 5,46 1,46ZM0,0L0,3 2,1 3,1 3,7 2,7 2,8 6,8 6,7 5,7 5,1 6,1 8,3 8,0 0,0 0,0ZM5,14 3,14 3,13 0,13 0,16 1,16 1,18 0,18 0,21 3,21 3,20 5,20 5,21 8,21 8,18 7,18 7,16 8,16 8,13 5,13 5,14 5,14ZM1,14 2,14 2,15 1,15 1,14 1,14ZM2,20 1,20 1,19 2,19 2,20 2,20ZM7,20 6,20 6,19 7,19 7,20 7,20ZM6,14 7,14 7,15 6,15 6,14 6,14ZM6,18 5,18 5,19 3,19 3,18 2,18 2,16 3,16 3,15 5,15 5,16 6,16 6,18 6,18Z"/>
    </g>
</svg>
