<svg xmlns="http://www.w3.org/2000/svg" xmlns:xlink="http://www.w3.org/1999/xlink" width="40" height="510">
<path id="brightness-contrast" fill="#676767" d="M20,11.4c-2,0-3.6,1.6-3.6,3.6s1.6,3.6,3.6,3.6s3.6-1.6,3.6-3.6S22,11.4,20,11.4z
	 M20,17.9c-1.6,0-2.9-1.3-2.9-2.9s1.3-2.9,2.9-2.9V17.9z M19.3,23h1.5v-2.9h-1.5V23z M20.7,7h-1.5v2.9h1.5V7z M23.1,19.1l2,2l1-1
	l-2-2L23.1,19.1z M16.9,10.9l-2-2l-1,1l2,2L16.9,10.9z M25.1,14.3v1.5H28v-1.5H25.1z M14.9,14.3H12v1.5h2.9V14.3z M26.2,9.8l-1-1
	l-2,2l1,1L26.2,9.8z M13.8,20.2l1,1l2-2l-1-1L13.8,20.2z"/>
<polygon id="levels" fill="#676767" points="27,43 27,47 26,47 26,41 25,41 25,38 24,38 24,42 23,42 23,43 22,43 22,39 21,39 21,43
	20,43 20,46 19,46 19,40 18,40 18,45 17,45 17,48 16,48 16,46 15,46 15,41 14,41 14,48 13,48 13,44 12,44 12,53 28,53 28,43 "/>
<g id="curves" transform="translate(0,60)">
	<path fill="#676767" d="M12,8v13h16V8H12z M22,9v3h-4V9H22z M22,13v3h-4v-3H22z M13,9h4v3h-4V9z M13,13h4v3h-4V13z M13,20v-3h4v3
		H13z M18,20v-3h4v3H18z M27,20h-4v-3h4V20z M27,16h-4v-3h4V16z M27,12h-4V9h4V12z"/>
	<path fill="#7F7F7F" d="M25.1,8c-2.2,1.2-3.9,3.6-5.5,6c-2.2,3.2-4.3,6.3-7.6,6.3V21h3.1c2.4-1.2,4.1-3.7,5.8-6.2
		c2.1-3.1,4-6.1,7.1-6.1V8H25.1z"/>
</g>
<path id="exposure" fill="#676767" d="M26,108v-1h-5v1H26z M12,98v13h16V98H12z M14,102h2v-2h1v2h2v1h-2v2h-1v-2h-2V102z M27,110H13
	l14-11V110z"/>
<radialGradient id="vibrance_1_" cx="20.2" cy="132.08" r="8.7504" fx="19.94" fy="132.16" gradientUnits="userSpaceOnUse">
	<stop  offset="0" style="stop-color:#676767;stop-opacity:0"/>
	<stop  offset="1" style="stop-color:#676767"/>
</radialGradient>
<polygon id="vibrance" fill="url(#vibrance_1_)" stroke="#676767" stroke-miterlimit="10" points="28,127.5 20.2,141 12.4,127.5 "/>
<g id="hue-saturation" transform="translate(0,150)">

		<linearGradient id="SVGID_1_" gradientUnits="userSpaceOnUse" x1="12" y1="17.5" x2="28" y2="17.5">
		<stop  offset="0" style="stop-color:#676767;stop-opacity:0"/>
		<stop  offset="1" style="stop-color:#676767"/>
	</linearGradient>
	<rect x="12.5" y="14.5" fill="url(#SVGID_1_)" stroke="#676767" width="15" height="6"/>

		<linearGradient id="SVGID_2_" gradientUnits="userSpaceOnUse" x1="12" y1="11.5" x2="28" y2="11.5">
		<stop  offset="0" style="stop-color:#676767;stop-opacity:0.1"/>
		<stop  offset="0.2405" style="stop-color:#676767;stop-opacity:0.5"/>
		<stop  offset="0.4613" style="stop-color:#676767;stop-opacity:0"/>
		<stop  offset="0.6667" style="stop-color:#676767"/>
		<stop  offset="0.8605" style="stop-color:#676767;stop-opacity:0.4"/>
		<stop  offset="1" style="stop-color:#676767"/>
	</linearGradient>
	<rect x="12.5" y="8.5" fill="url(#SVGID_2_)" stroke="#676767" width="15" height="6"/>
</g>
<path id="color-balance" fill="#676767" d="M25,192l-3,6c0,1.7,1.3,3,3,3s3-1.3,3-3L25,192z M23.1,198l1.9-3.8l1.9,3.8H23.1z
	 M15,201c1.7,0,3-1.3,3-3l-3-6l-3,6C12,199.7,13.3,201,15,201z M15,194.2l1.9,3.8h-3.8L15,194.2z M21,191v-2h-2v2h-4v1l4,1v1h2v-1
	l4-1v-1H21z"/>
<path id="black-and-white" fill="#676767" d="M12,218v13h16v-13H12z M13,230v-11h7v11H13z"/>
<path id="photo-filter" fill="#676767" d="M20.8,251.5c-0.3-1-1.3-1.7-2.4-1.7c-1.4,0-2.5,1.1-2.5,2.5c0,1.3,0.9,2.3,2.2,2.5
	C18.4,253.4,19.4,252.2,20.8,251.5z M17.9,256c-1.8-0.3-3.2-1.8-3.2-3.7c0-2.1,1.7-3.7,3.7-3.7c1.6,0,3,1.1,3.5,2.5
	c0.3-0.1,0.6-0.1,1-0.1c0.7,0,1.3,0.1,1.9,0.4v-2.3c0-0.7-0.6-1.2-1.2-1.2h-2.3V247h-5.8v0.9h-2.3c-0.7,0-1.2,0.6-1.2,1.2v6.4
	c0,0.7,0.6,1.2,1.2,1.2H18C17.9,256.5,17.9,256.3,17.9,256C17.9,256,17.9,256,17.9,256z M24.8,251.4v4.1c0,0.7-0.6,1.2-1.2,1.2H18
	c0.4,2.4,2.4,4.3,4.9,4.3c2.8,0,5-2.2,5-5C27.9,254,26.6,252.2,24.8,251.4z M20.9,252.3c0,1.4-1.1,2.5-2.5,2.5c-0.1,0-0.2,0-0.3,0
	c-0.1,0.4-0.2,0.8-0.2,1.2c0.2,0,0.3,0.1,0.5,0.1c2.1,0,3.7-1.7,3.7-3.7c0-0.4-0.1-0.8-0.2-1.2c-0.4,0.1-0.8,0.2-1.2,0.4
	C20.9,251.8,20.9,252.1,20.9,252.3z"/>
<path id="channel-mixer" fill="#676767" d="M20,282.4c1.2-0.8,2.7-0.9,4-0.2c0-0.1,0-0.1,0-0.2c0-2.2-1.8-4-4-4s-4,1.8-4,4
	c0,0.1,0,0.1,0,0.2C17.3,281.5,18.8,281.7,20,282.4z M18.2,285.5c-1.2-0.6-2.1-1.9-2.2-3.3c-0.1,0-0.1,0-0.2,0.1
	c-1.9,1.1-2.6,3.6-1.5,5.5c1.1,1.9,3.6,2.6,5.5,1.5c0.1,0,0.1-0.1,0.2-0.1C18.8,288.3,18.1,286.9,18.2,285.5z M24.2,282.3
	c-0.1,0-0.1-0.1-0.2-0.1c-0.1,1.5-0.9,2.7-2.2,3.3c0.1,1.4-0.6,2.8-1.8,3.5c0.1,0,0.1,0.1,0.2,0.1c1.9,1.1,4.4,0.4,5.5-1.5
	C26.7,285.8,26.1,283.4,24.2,282.3z M20,282.4c-0.5,0.3-1,0.8-1.3,1.3c-0.3,0.6-0.5,1.2-0.5,1.8c0.5,0.3,1.2,0.5,1.8,0.5
	s1.3-0.2,1.8-0.5c0-0.6-0.2-1.2-0.5-1.8C21,283.2,20.5,282.7,20,282.4z"/>
<g id="color-lookup" transform="translate(0,300)">
	<rect x="13" y="9" fill="#676767" stroke="#676767" width="4" height="3"/>
	<rect x="18" y="9" fill="#7F7F7F" stroke="#7F7F7F" width="4" height="3"/>
	<rect x="23" y="9" fill="#B6B6B7" stroke="#B6B6B7" width="4" height="3"/>
	<rect x="18" y="13" fill="#B6B6B7" stroke="#B6B6B7" width="4" height="3"/>
	<rect x="13" y="17" fill="#B6B6B7" stroke="#B6B6B7" width="4" height="3"/>
	<rect x="18" y="17" fill="#D8D8D8" stroke="#D8D8D8" width="4" height="3"/>
	<rect x="23" y="13" fill="#D8D8D8" stroke="#D8D8D8" width="4" height="3"/>
	<rect x="23" y="17" fill="#FFFFFF" stroke="#FFFFFF" width="4" height="3"/>
	<rect x="13" y="13" fill="#7F7F7F" stroke="#7F7F7F" width="4" height="3"/>
	<path fill="#676767" d="M12,8v13h16V8H12z M22,9v3h-4V9H22z M22,13v3h-4v-3H22z M13,9h4v3h-4V9z M13,13h4v3h-4V13z M13,20v-3h4v3
		H13z M18,20v-3h4v3H18z M27,20h-4v-3h4V20z M27,16h-4v-3h4V16z M27,12h-4V9h4V12z"/>
</g>
<path id="invert" fill="#676767" d="M12,338v13h16v-13H12z M24.1,344.5c0,2.3-1.8,4.1-4.1,4.1c-1.3,0-2.4-0.6-3.2-1.6l-3.8,3v-11h14
	l-3.8,3C23.7,342.7,24.1,343.5,24.1,344.5z M20,340.4c-2.3,0-4.1,1.8-4.1,4.1c0,1,0.3,1.8,0.9,2.5l6.4-5
	C22.4,341,21.3,340.4,20,340.4z"/>
<g id="posterize" transform="translate(0,360)">

		<linearGradient id="SVGID_3_" gradientUnits="userSpaceOnUse" x1="15.67" y1="9.53" x2="24.86" y2="20.09">
		<stop  offset="0" style="stop-color:#676767;stop-opacity:0"/>
		<stop  offset="0.33" style="stop-color:#676767"/>
		<stop  offset="0.66" style="stop-color:#676767;stop-opacity:0"/>
		<stop  offset="1" style="stop-color:#676767"/>
	</linearGradient>
	<rect x="12.5" y="8.5" fill="url(#SVGID_3_)" stroke="#676767" width="15" height="12"/>
</g>
<path id="threshold" fill="#676767" d="M12,398v13h16v-13H12z M13,410v-2h2v-2h1v-1h2v-2h2v-1h2v-2h2v-1h3v2h-2v1h-1v1h-1v1h-2v1h-1
	v1h-1v1h-2v2h-1v1H13z M27,408h-1v1h-1v1h-5v-1h2v-1h1v-1h1v-1h1v-2h1v-1h1V408z"/>
<path id="selective-color" fill="#676767" d="M12,428v13h16v-13H12z M27,440l-7-5.5l-7,5.5v-11l7,5.5l7-5.5V440z"/>
<linearGradient id="gradient-map1" gradientUnits="userSpaceOnUse" x1="13" y1="464.5" x2="27" y2="464.5">
	<stop  offset="0" style="stop-color:#676767;stop-opacity:0"/>
	<stop  offset="1" style="stop-color:#676767"/>
</linearGradient>
<rect id="gradient-map" x="12.5" y="458.5" fill="url(#gradient-map1)" stroke="#676767" width="15" height="12"/>
<path id="generic" fill="#676767" d="M20,488c-3.9,0-7,3.1-7,7c0,3.9,3.1,7,7,7s7-3.1,7-7C27,491.1,23.9,488,20,488z M24.2,499.2
	c-2.3,2.3-6.1,2.3-8.5,0l8.5-8.5C26.6,493.1,26.6,496.9,24.2,499.2z"/>
</svg>
